<?xml version="1.0" encoding="UTF-8" standalone="no"?>
<svg width="77px" height="65px" viewBox="0 0 77 65" version="1.1" xmlns="http://www.w3.org/2000/svg" xmlns:xlink="http://www.w3.org/1999/xlink" xmlns:sketch="http://www.bohemiancoding.com/sketch/ns">
    <!-- Generator: Sketch 3.5.1 (25234) - http://www.bohemiancoding.com/sketch -->
    <title>fuelfor</title>
    <desc>Created with Sketch.</desc>
    <defs></defs>
    <g id="Page-1" stroke="none" stroke-width="1" fill="none" fill-rule="evenodd" sketch:type="MSPage">
        <g id="ЂЃ£Ѓ-†£аЃ-2" sketch:type="MSLayerGroup" transform="translate(2.000000, 2.000000)">
            <path d="M44.119,0.513 L27.938,0.513 L0.843,32.326 L0.843,58.807 L9.293,58.807 L9.293,34.017 L31.262,8.034 L40.809,8.034 L62.767,34.017 L62.767,58.807 L71.214,58.807 L71.214,32.326 L44.119,0.513" id="Fill-1" fill="#2196F3" sketch:type="MSShapeGroup"></path>
            <path d="M0.843,58.837 L9.293,58.837 L9.293,34.047 L0.843,32.356 L0.843,58.837" id="Fill-2" fill="#2175B8" sketch:type="MSShapeGroup"></path>
            <path d="M71.214,58.837 L62.764,58.837 L62.764,34.047 L71.214,32.356 L71.214,58.837" id="Fill-3" fill="#2175B8" sketch:type="MSShapeGroup"></path>
            <path d="M31.35,22.748 L0.843,58.807 L13.511,58.807 L35.588,32.824 L36.469,32.824 L58.546,58.807 L71.214,58.807 L40.707,22.748 L31.35,22.748" id="Fill-4" fill="#4D4D4F" sketch:type="MSShapeGroup"></path>
        </g>
    </g>
</svg>